<?xml version="1.0" encoding="UTF-8" standalone="no" ?>
<!DOCTYPE svg PUBLIC "-//W3C//DTD SVG 1.1//EN" "http://www.w3.org/Graphics/SVG/1.1/DTD/svg11.dtd">
<svg xmlns="http://www.w3.org/2000/svg" xmlns:xlink="http://www.w3.org/1999/xlink" version="1.1" width="1080" height="1080" viewBox="0 0 1080 1080" xml:space="preserve">
<desc>Created with Fabric.js 5.2.4</desc>
<defs>
</defs>
<g transform="matrix(1 0 0 1 540 540)" id="ced889c5-83bc-4c08-88b5-40fb6c866d4a"  >
</g>
<g transform="matrix(1 0 0 1 540 540)" id="3ee0e7b8-8a5f-4d4c-bbf1-bf7f4800f25d"  >
<rect style="stroke: none; stroke-width: 1; stroke-dasharray: none; stroke-linecap: butt; stroke-dashoffset: 0; stroke-linejoin: miter; stroke-miterlimit: 4; fill: rgb(255,255,255); fill-rule: nonzero; opacity: 1; visibility: hidden;" vector-effect="non-scaling-stroke"  x="-540" y="-540" rx="0" ry="0" width="1080" height="1080" />
</g>
<g transform="matrix(11.84 0 0 11.73 540 541.09)" id="b1770bee-db7e-4347-8545-0e6ed7f39d8a"  >
<circle style="stroke: rgb(255,255,255); stroke-width: 0; stroke-dasharray: none; stroke-linecap: butt; stroke-dashoffset: 0; stroke-linejoin: miter; stroke-miterlimit: 4; fill: rgb(255,255,255); fill-rule: nonzero; opacity: 1;" vector-effect="non-scaling-stroke"  cx="0" cy="0" r="35" />
</g>
<g transform="matrix(1 0 0 1 540 540)"  >
<g style="" vector-effect="non-scaling-stroke"   >
		<g transform="matrix(1 0 0 1 -0.33 -381.02)"  >
<path style="stroke: none; stroke-width: 1; stroke-dasharray: none; stroke-linecap: butt; stroke-dashoffset: 0; stroke-linejoin: miter; stroke-miterlimit: 4; fill: rgb(0,0,0); fill-rule: nonzero; opacity: 1;" vector-effect="non-scaling-stroke"  transform=" translate(-512.01, -139.47)" d="M 674.66 163.26 Q 584.8399999999999 126.03999999999999 489.66999999999996 130.85 Q 425.96 134.06 365.96 157 Q 351.28 162.62 335.60999999999996 169.01 C 330.22999999999996 171.20999999999998 322.67999999999995 170.07999999999998 320.22999999999996 164.17 C 318.84 160.79999999999998 318.98999999999995 155.85 322.16999999999996 153.31 Q 324.61999999999995 151.36 327.75999999999993 150.01 Q 341.50999999999993 144.12 352.11999999999995 139.92 Q 385.00999999999993 126.89999999999999 418.52 119.22999999999999 C 481.95 104.71999999999998 548.55 105.77999999999999 611.3299999999999 120.55999999999999 Q 630.04 124.96 652.3399999999999 132.32 Q 669.6999999999999 138.04999999999998 694.3599999999999 149.06 Q 697.8299999999999 150.61 700.2699999999999 152.14000000000001 C 704.8999999999999 155.03 705.8799999999999 160.71 702.9999999999999 165.25 C 699.9299999999998 170.07 693.7299999999999 170.97 688.7299999999999 168.98 Q 681.55 166.11999999999998 674.6599999999999 163.26 z" stroke-linecap="round" />
</g>
		<g transform="matrix(1 0 0 1 64.96 5.24)"  >
<path style="stroke: none; stroke-width: 1; stroke-dasharray: none; stroke-linecap: butt; stroke-dashoffset: 0; stroke-linejoin: miter; stroke-miterlimit: 4; fill: rgb(0,0,0); fill-rule: nonzero; opacity: 1;" vector-effect="non-scaling-stroke"  transform=" translate(-577.29, -525.73)" d="M 791.55 798.74 Q 791.56 799.29 791.9499999999999 798.9 Q 811.28 779.4 828.6899999999999 756.3 Q 880.66 687.3399999999999 898.89 601.6999999999999 Q 908.64 555.8699999999999 908.46 511.37999999999994 Q 908.37 490.28999999999996 905.4200000000001 465.74999999999994 Q 904.2400000000001 455.84999999999997 902.3000000000001 446.06999999999994 Q 893.34 400.87999999999994 877.22 364.40999999999997 Q 854.4300000000001 312.83 818.5500000000001 269.73999999999995 Q 800.58 248.16999999999996 777.95 226.36999999999995 Q 774.45 222.99999999999994 773.4000000000001 220.48999999999995 C 771.45 215.78999999999996 772.9900000000001 209.17999999999995 778.1100000000001 207.05999999999995 C 784.1800000000002 204.53999999999994 788.8800000000001 207.99999999999994 793.0800000000002 212.14999999999995 C 802.0800000000002 221.03999999999996 811.5000000000001 229.90999999999994 820.1000000000001 239.20999999999995 Q 865.0200000000001 287.77 893.4300000000002 348.17999999999995 Q 907.0300000000002 377.0799999999999 916.6300000000002 412.35999999999996 Q 932.1800000000002 469.55999999999995 929.9500000000003 526.4 Q 927.9700000000003 576.72 915.1600000000003 626.25 C 900.5700000000003 682.61 872.9000000000003 736.25 836.4100000000003 780.96 Q 816.8300000000003 804.94 791.6600000000003 828.98 Q 791.2300000000004 829.39 791.1600000000003 829.98 C 788.8200000000003 850.63 772.4800000000004 865.95 752.8100000000003 869.58 Q 746.4800000000002 870.75 736.2500000000003 870.69 Q 693.3200000000004 870.4000000000001 650.2500000000003 870.6300000000001 Q 569.5100000000003 871.0600000000001 338.76000000000033 870.5600000000001 C 320.82000000000033 870.5200000000001 303.5800000000003 870.71 285.12000000000035 870.74 Q 273.99000000000035 870.77 267.54000000000036 868.96 C 247.50000000000037 863.33 233.38000000000036 847.49 233.24000000000035 826.13 Q 233.07000000000036 801.83 233.18000000000035 766.06 Q 233.21000000000035 754.9399999999999 234.70000000000036 749.3299999999999 C 238.40000000000035 735.3699999999999 247.25000000000037 726.0799999999999 259.26000000000033 718.7199999999999 C 259.43960709644904 718.6108429923075 259.54758455661965 718.414381432591 259.543464250079 718.2042457990179 C 259.53934394353837 717.994110165445 259.4237480651623 717.8020323966804 259.24000000000035 717.6999999999999 C 243.10000000000036 708.65 233.05000000000035 694.17 232.90000000000035 675.3299999999999 Q 232.60000000000034 639.06 232.93000000000035 609.03 Q 233.08000000000035 594.88 241.49000000000035 581.5799999999999 Q 241.80000000000035 581.0699999999999 241.49000000000035 580.5699999999999 Q 229.61000000000035 561.15 226.92000000000036 540.9799999999999 Q 222.27000000000035 506.0599999999999 228.10000000000036 472.0499999999999 Q 230.94000000000037 455.4099999999999 238.93000000000038 433.9599999999999 Q 248.16000000000037 409.17999999999995 261.4500000000004 384.0399999999999 C 261.7700000000004 383.4299999999999 261.9900000000004 382.2099999999999 261.9900000000004 381.50999999999993 Q 262.0000000000004 375.2699999999999 261.6100000000004 367.75999999999993 Q 257.71000000000043 293.04999999999995 258.3500000000004 226.73999999999992 Q 258.5000000000004 210.60999999999993 266.8500000000004 196.61999999999992 C 277.3000000000004 179.08999999999992 299.59000000000043 177.14999999999992 315.65000000000043 188.3499999999999 Q 323.57000000000045 193.86999999999992 332.39000000000044 200.3499999999999 Q 388.63000000000045 241.6799999999999 447.62000000000046 285.1299999999999 C 450.14000000000044 286.9899999999999 453.26000000000045 289.3599999999999 456.5400000000005 289.3599999999999 Q 513.5100000000004 289.5099999999999 568.4800000000005 289.3699999999999 C 574.2000000000005 289.3499999999999 579.3100000000005 284.4699999999999 584.0400000000004 280.9699999999999 Q 643.5900000000004 236.83999999999992 702.9100000000004 192.39999999999992 C 709.4700000000004 187.48999999999992 716.6100000000005 182.85999999999993 724.6300000000005 181.82999999999993 Q 745.6600000000004 179.13999999999993 756.8700000000005 196.47999999999993 C 763.8300000000005 207.22999999999993 766.2200000000005 219.92999999999992 766.2200000000005 232.75999999999993 Q 766.2700000000004 308.54999999999995 762.3400000000005 380.6099999999999 C 762.2500000000005 382.1799999999999 762.6500000000004 383.6699999999999 763.3400000000005 385.0399999999999 Q 766.9600000000005 392.2099999999999 770.5400000000005 399.4399999999999 C 779.3800000000006 417.2999999999999 786.7300000000006 435.1799999999999 792.0800000000005 453.90999999999985 C 799.1700000000005 478.6999999999999 800.9500000000005 504.4499999999999 798.6400000000004 531.5299999999999 Q 796.3600000000005 558.1599999999999 783.2500000000005 579.6299999999999 C 782.9181319928667 580.1815333789028 782.9219905156295 580.8722089534517 783.2600000000004 581.4199999999998 Q 788.1400000000004 589.2799999999999 790.1800000000004 597.7899999999998 Q 791.6700000000004 604.0599999999998 791.6300000000005 614.6199999999999 Q 791.5200000000004 643.0699999999999 791.6900000000004 671.2799999999999 Q 791.7400000000004 679.9599999999998 790.2000000000004 686.2699999999999 C 786.6700000000004 700.7699999999999 777.1400000000004 710.6799999999998 764.5200000000004 717.9199999999998 C 764.4225758318917 717.974960026618 764.3623154621177 718.0781426218008 764.3623154621177 718.1899999999998 C 764.3623154621177 718.3018573781989 764.4225758318917 718.4050399733817 764.5200000000004 718.4599999999998 C 777.1900000000004 725.8299999999998 786.2000000000004 735.7799999999999 789.8100000000004 750.0299999999999 Q 791.5900000000004 757.0299999999999 791.4900000000004 768.9099999999999 Q 791.3600000000004 783.5999999999999 791.5500000000003 798.7399999999999 z M 289.71 406.38 C 280.94 425.03 272.46 443.87 265.92999999999995 463.31 Q 249.13999999999996 513.26 268.38999999999993 561.69 Q 268.56999999999994 562.1600000000001 269.0799999999999 562.1 Q 273.92999999999995 561.5400000000001 278.98999999999995 561.5400000000001 Q 338.86999999999995 561.5300000000001 405.73999999999995 561.57 C 413.67999999999995 561.57 420.71 567.1600000000001 420.71 575.47 C 420.71 583.7 414.82 589.8100000000001 406.45 589.61 Q 403.83 589.5500000000001 401.01 589.57 Q 342.86 589.99 295.46999999999997 589.6400000000001 Q 287.36999999999995 589.5800000000002 282.64 590.9100000000001 C 273.26 593.57 265.55 600.1400000000001 262.44 609.3800000000001 Q 260.77 614.3600000000001 260.92 624.1500000000001 Q 261.2 642.9200000000001 260.90000000000003 663.08 Q 260.8 670.21 262.26000000000005 675.0200000000001 C 266.49000000000007 688.9600000000002 276.58000000000004 697.19 290.23 700.8500000000001 Q 294.84000000000003 702.0900000000001 299.74 702.0900000000001 Q 504.36 701.8800000000001 715.71 702.1400000000001 Q 728.99 702.1600000000001 731.87 701.7600000000001 C 745.62 699.8800000000001 757.37 690.5500000000001 761.85 677.2100000000002 Q 763.74 671.5700000000002 763.73 660.1300000000001 Q 763.71 641.0600000000001 763.61 623.8500000000001 C 763.58 619.1500000000001 763.6 614.8600000000001 762.29 610.5300000000001 C 758.15 596.82 746.49 589.7700000000001 732.7099999999999 589.7600000000001 Q 673.6199999999999 589.7300000000001 616.9499999999999 589.7500000000001 C 605.05 589.7500000000001 599.1299999999999 576.2200000000001 606.14 567.1100000000001 C 609.93 562.1800000000002 614.96 561.6400000000001 621.06 561.6300000000001 Q 686.66 561.5000000000001 747 561.5600000000001 Q 751.7 561.57 755.82 561.9000000000001 Q 756.3000000000001 561.94 756.46 561.4900000000001 C 765.8100000000001 536.1400000000001 769.3100000000001 510.6900000000001 764.19 484.7000000000001 C 760.37 465.3300000000001 753.3100000000001 447.0100000000001 745.2900000000001 429.0500000000001 Q 738.5100000000001 413.8800000000001 730.6 397.3800000000001 C 728.75 393.5200000000001 727.6 389.4100000000001 727.85 385.2400000000001 Q 730.33 343.7500000000001 731.4200000000001 315.7600000000001 Q 732.96 275.8900000000001 732.7700000000001 227.7500000000001 Q 732.7500000000001 223.7500000000001 729.3700000000001 221.90000000000012 C 726.6400000000001 220.4100000000001 722.6700000000001 222.9700000000001 720.3900000000001 224.6300000000001 Q 697.1400000000001 241.6100000000001 674.82 258.7800000000001 C 651.21 276.9400000000001 627.36 294.7500000000001 604.3800000000001 312.6300000000001 Q 598.7200000000001 317.04000000000013 591.2600000000001 323.2400000000001 Q 588.2700000000001 325.72000000000014 586.1500000000001 325.8700000000001 Q 582.32 326.1300000000001 578.2500000000001 326.1500000000001 Q 502.8800000000001 326.4600000000001 442.0000000000001 326.1700000000001 Q 438.5500000000001 326.1500000000001 437.4300000000001 325.11000000000007 Q 430.4400000000001 318.55000000000007 422.9500000000001 312.9100000000001 Q 369.7100000000001 272.7500000000001 301.3400000000001 222.82000000000008 C 299.2800000000001 221.3100000000001 296.55000000000007 220.46000000000006 294.30000000000007 222.30000000000007 Q 291.7300000000001 224.40000000000006 291.7300000000001 227.23000000000008 Q 291.61000000000007 304.4100000000001 296.9200000000001 385.5900000000001 Q 297.1600000000001 389.3400000000001 296.01000000000005 392.12000000000006 Q 293.03000000000003 399.32000000000005 289.71000000000004 406.38000000000005 z M 736.97 841.28 C 752.35 839.98 763.44 827.77 763.47 812.24 Q 763.5 794.82 763.6 775.9300000000001 Q 763.64 768.19 762.2900000000001 763.09 C 758.19 747.5400000000001 745.4200000000001 738.34 729.2 738.34 Q 510.6 738.27 295.63000000000005 738.35 C 280.84000000000003 738.35 267.27000000000004 746.71 262.4200000000001 760.91 Q 260.88000000000005 765.42 260.8900000000001 773.4 Q 260.9100000000001 796.0799999999999 261.0600000000001 813.3199999999999 C 261.17000000000013 825.91 269.2600000000001 836.8199999999999 281.1200000000001 840.3799999999999 Q 285.9900000000001 841.8399999999999 297.85000000000014 841.8299999999999 Q 518.8600000000001 841.6199999999999 723.4100000000001 841.8 Q 730.71 841.81 736.97 841.28 z" stroke-linecap="round" />
</g>
		<g transform="matrix(1 0 0 1 -340.04 -11.23)"  >
<path style="stroke: none; stroke-width: 1; stroke-dasharray: none; stroke-linecap: butt; stroke-dashoffset: 0; stroke-linejoin: miter; stroke-miterlimit: 4; fill: rgb(0,0,0); fill-rule: nonzero; opacity: 1;" vector-effect="non-scaling-stroke"  transform=" translate(-172.29, -509.27)" d="M 145.86 366.23 C 125.19000000000001 414.47 114.10000000000001 467.47 115.36000000000001 520.29 Q 116.92000000000002 585.41 137.04000000000002 646.48 C 154.86 700.54 186.61 751.09 226.03000000000003 792.85 C 229.66000000000003 796.69 231.14000000000004 802.64 228.20000000000002 807.24 Q 226.15 810.45 223.74 811.45 C 217.27 814.1400000000001 212.89000000000001 809.8100000000001 208.69 805.3100000000001 C 158.8 751.9100000000001 122.63 687.0400000000001 105.98 615.9100000000001 C 92.32000000000001 557.5300000000001 89.26 499.4000000000001 100.64 441.1600000000001 Q 105.79 414.80000000000007 114.62 388.05000000000007 Q 121.94 365.9000000000001 132.17000000000002 344.63000000000005 C 156.92000000000002 293.19000000000005 191.37 247.91000000000005 233.42000000000002 209.84000000000006 Q 235.19000000000003 208.24000000000007 237.59 207.09000000000006 C 241.72 205.12000000000006 246.81 206.81000000000006 249.29 210.42000000000007 C 252.35999999999999 214.89000000000007 250.79999999999998 221.06000000000006 247.01999999999998 224.79000000000008 Q 219.17 252.23000000000008 197.45999999999998 279.9000000000001 C 176.86999999999998 306.1400000000001 158.92999999999998 335.7500000000001 145.85999999999999 366.2300000000001 z" stroke-linecap="round" />
</g>
		<g transform="matrix(1 0 0 1 -2.24 -58.79)"  >
<path style="stroke: none; stroke-width: 1; stroke-dasharray: none; stroke-linecap: butt; stroke-dashoffset: 0; stroke-linejoin: miter; stroke-miterlimit: 4; fill: rgb(251,253,248); fill-rule: nonzero; opacity: 1;" vector-effect="non-scaling-stroke"  transform=" translate(-510.09, -461.7)" d="M 289.71 406.38 Q 293.03 399.32 296.01 392.12 Q 297.15999999999997 389.34000000000003 296.92 385.59000000000003 Q 291.61 304.41 291.73 227.23000000000002 Q 291.73 224.4 294.3 222.3 C 296.55 220.46 299.28000000000003 221.31 301.34000000000003 222.82000000000002 Q 369.71000000000004 272.75 422.95000000000005 312.91 Q 430.44000000000005 318.55 437.43000000000006 325.11 Q 438.55000000000007 326.15000000000003 442.00000000000006 326.17 Q 502.88000000000005 326.46000000000004 578.25 326.15000000000003 Q 582.32 326.13000000000005 586.15 325.87000000000006 Q 588.27 325.7200000000001 591.26 323.24000000000007 Q 598.72 317.0400000000001 604.38 312.63000000000005 C 627.36 294.75000000000006 651.21 276.94000000000005 674.8199999999999 258.78000000000003 Q 697.14 241.61 720.39 224.63000000000002 C 722.67 222.97000000000003 726.64 220.41000000000003 729.37 221.90000000000003 Q 732.75 223.75000000000003 732.77 227.75000000000003 Q 732.96 275.89000000000004 731.42 315.76000000000005 Q 730.3299999999999 343.75000000000006 727.8499999999999 385.24000000000007 C 727.5999999999999 389.4100000000001 728.7499999999999 393.52000000000004 730.5999999999999 397.38000000000005 Q 738.5099999999999 413.88000000000005 745.29 429.05000000000007 C 753.31 447.01000000000005 760.37 465.33000000000004 764.1899999999999 484.70000000000005 C 769.31 510.69000000000005 765.81 536.1400000000001 756.4599999999999 561.49 Q 756.3 561.94 755.8199999999999 561.9 Q 751.6999999999999 561.5699999999999 746.9999999999999 561.56 Q 686.6599999999999 561.5 621.06 561.63 C 614.9599999999999 561.64 609.93 562.18 606.14 567.11 C 599.13 576.22 605.05 589.75 616.9499999999999 589.75 Q 673.6199999999999 589.73 732.7099999999999 589.76 C 746.4899999999999 589.77 758.15 596.8199999999999 762.29 610.53 C 763.5999999999999 614.86 763.5799999999999 619.15 763.61 623.85 Q 763.71 641.0600000000001 763.73 660.13 Q 763.74 671.57 761.85 677.21 C 757.37 690.5500000000001 745.62 699.88 731.87 701.76 Q 728.99 702.16 715.71 702.14 Q 504.36 701.88 299.74 702.09 Q 294.84000000000003 702.09 290.23 700.85 C 276.58000000000004 697.19 266.49 688.96 262.26 675.02 Q 260.8 670.21 260.9 663.0799999999999 Q 261.2 642.92 260.91999999999996 624.15 Q 260.77 614.36 262.43999999999994 609.38 C 265.54999999999995 600.14 273.25999999999993 593.57 282.63999999999993 590.91 Q 287.36999999999995 589.5799999999999 295.4699999999999 589.64 Q 342.8599999999999 589.99 401.00999999999993 589.5699999999999 Q 403.8299999999999 589.55 406.44999999999993 589.6099999999999 C 414.81999999999994 589.81 420.7099999999999 583.6999999999999 420.7099999999999 575.4699999999999 C 420.7099999999999 567.16 413.67999999999995 561.5699999999999 405.7399999999999 561.5699999999999 Q 338.8699999999999 561.53 278.9899999999999 561.54 Q 273.9299999999999 561.54 269.07999999999987 562.0999999999999 Q 268.5699999999999 562.1599999999999 268.3899999999999 561.6899999999999 Q 249.13999999999987 513.26 265.9299999999999 463.30999999999995 C 272.45999999999987 443.86999999999995 280.9399999999999 425.03 289.7099999999999 406.37999999999994 z M 411.96999999999997 480.28999999999996 C 420.78999999999996 482.54999999999995 428.41999999999996 485.03999999999996 434.36999999999995 492.36999999999995 Q 438.12999999999994 496.99999999999994 442.04999999999995 502.17999999999995 C 447.21999999999997 509.0199999999999 454.31999999999994 512.0699999999999 462.79999999999995 508.4 C 470.93999999999994 504.88 475.35999999999996 495.37 472.56999999999994 486.73999999999995 C 467.7199999999999 471.73999999999995 455.61999999999995 456.43999999999994 440.8399999999999 450.11999999999995 Q 433.0299999999999 446.7699999999999 424.49999999999994 444.43999999999994 Q 408.42999999999995 440.03999999999996 392.99999999999994 438.31999999999994 Q 380.0799999999999 436.86999999999995 373.6499999999999 446.28999999999996 C 367.2999999999999 455.58 371.25999999999993 466.16999999999996 380.2999999999999 471.60999999999996 Q 383.5899999999999 473.59 391.5099999999999 475.35999999999996 Q 401.57999999999987 477.61999999999995 411.96999999999986 480.28999999999996 z M 607.87 481.89 Q 623.02 477.58 636.72 474.38 Q 646.9 472.01 651.6700000000001 464.13 C 654.6500000000001 459.19 654.7900000000001 452.56 651.7700000000001 447.71 Q 645.0000000000001 436.85999999999996 631.9900000000001 438.26 Q 612.6100000000001 440.34999999999997 591.6600000000001 447.64 Q 566.1100000000001 456.53 554.07 482.21999999999997 C 549.83 491.27 551.07 501.41999999999996 559.72 507.32 C 567.32 512.51 576.6800000000001 509.52 582.34 502.75 Q 586.52 497.75 590.37 492.93 C 594.53 487.7 600.89 483.88 607.87 481.89 z M 512.64 645.93 C 515.72 648.8399999999999 518.59 651.91 521.96 654.54 Q 537.7 666.8499999999999 558.86 668.77 C 581.4 670.81 600.97 659.86 617.86 645.1 C 624.4300000000001 639.36 630.16 631.88 626.86 622.8100000000001 Q 624.14 615.35 616.54 612.73 C 607.42 609.58 601.06 613.88 594.3499999999999 619.83 C 585.3999999999999 627.76 576.3 633.12 563.6899999999999 632.5400000000001 Q 549.26 631.8700000000001 539.39 621.35 Q 532.05 613.52 529.55 604.4300000000001 Q 528.53 600.71 528.9 592.47 Q 528.93 591.8100000000001 529.3199999999999 591.2900000000001 Q 531.2199999999999 588.7600000000001 533.3299999999999 586.7300000000001 Q 539.3199999999999 580.9500000000002 544.5699999999999 575.5000000000001 C 549.9699999999999 569.9000000000001 552.4499999999999 562.2000000000002 548.67 554.9200000000001 Q 544.13 546.19 533.9699999999999 546.09 Q 513.68 545.9 491.5399999999999 546 Q 483.0499999999999 546.04 478.4399999999999 551.33 C 471.76999999999987 558.99 473.83999999999986 568.57 480.4799999999999 575.47 Q 485.5499999999999 580.73 490.5699999999999 585.9100000000001 C 492.15999999999985 587.5500000000001 495.0699999999999 590.59 495.2899999999999 592.7400000000001 Q 496.4999999999999 604.2800000000001 491.7299999999999 612.6100000000001 C 486.5899999999999 621.5800000000002 478.7699999999999 629.0100000000001 468.63999999999993 631.3600000000001 C 452.94999999999993 635.0000000000001 440.8599999999999 629.9400000000002 429.38999999999993 619.7700000000001 C 425.62999999999994 616.44 420.29999999999995 612.1700000000001 415.2899999999999 611.69 C 402.5799999999999 610.49 393.0199999999999 622.11 397.44999999999993 634.2600000000001 C 398.69999999999993 637.69 401.0999999999999 640.5500000000001 403.62999999999994 643.1100000000001 Q 416.67999999999995 656.2900000000001 434.92999999999995 663.9400000000002 Q 450.21999999999997 670.3500000000001 465.15 668.8100000000002 Q 493.62 665.8600000000001 511.79999999999995 645.9600000000002 Q 512.2099999999999 645.5100000000001 512.64 645.9300000000002 z M 309.2422 656.7547 C 316.59039223487196 657.2041048172034 322.9178922361307 651.5087772647539 323.37510000000003 644.0337999999999 C 323.83230010815555 636.5587884919817 318.24602288556713 630.1347465335203 310.8978 629.6853 C 303.5496077651281 629.2358951827965 297.22210776386936 634.931222735246 296.7649 642.4062 C 296.3076998918445 649.8812115080183 301.8939771144329 656.3052534664796 309.2422 656.7547 z M 368.8648 656.7637 C 372.3672695242246 657.2248062869191 375.91331106113637 656.2464252794548 378.7228325868978 654.0437905591239 C 381.5323541126593 651.841155838793 383.3752131504311 648.5946966372143 383.846 645.0186 C 384.826418097102 637.5718020073906 379.70867905544026 630.7565520674136 372.4152 629.7963 C 368.91273047577545 629.3351937130808 365.36668893886366 630.3135747205451 362.5571674131022 632.5162094408761 C 359.74764588734075 634.7188441612069 357.90478684956895 637.9653033627857 357.434 641.5414 C 356.453581902898 648.9881979926093 361.5713209445598 655.8034479325863 368.8648 656.7637 z M 645.0550000000001 656.6101 C 648.5045582956267 657.2806369673272 652.0862373715598 656.5171787432445 655.0121061425413 654.4876779707158 C 657.9379749135227 652.4581771981871 659.9683605751878 649.3288806161078 660.6566 645.7882 C 662.0897488993324 638.4151300749463 657.4283196647712 631.3061773861057 650.245 629.9099 C 646.7954417043734 629.2393630326728 643.2137626284402 630.0028212567555 640.2878938574588 632.0323220292842 C 637.3620250864774 634.0618228018129 635.3316394248122 637.1911193838922 634.6434 640.7318 C 633.2102511006676 648.1048699250537 637.8716803352289 655.2138226138943 645.0550000000001 656.6101 z M 705.5377000000001 656.6863 C 712.8322474690888 657.5948409113884 719.494339658753 652.3202182245379 720.4179 644.9051 C 720.8614328030958 641.344236266838 719.8952524269218 637.755888431468 717.7319076367154 634.9294524705195 C 715.5685628465089 632.103016509571 712.3852636859043 630.2700194742274 708.8823 629.8336999999999 C 701.5877525309113 628.9251590886115 694.9256603412471 634.1997817754619 694.0021 641.6148999999999 C 693.5585671969043 645.1757637331618 694.5247475730782 648.7641115685319 696.6880923632847 651.5905475294803 C 698.8514371534911 654.4169834904288 702.0347363140958 656.2499805257725 705.5377000000001 656.6863 z" stroke-linecap="round" />
</g>
		<g transform="matrix(1 0 0 1 -90.36 -46.7)"  >
<path style="stroke: none; stroke-width: 1; stroke-dasharray: none; stroke-linecap: butt; stroke-dashoffset: 0; stroke-linejoin: miter; stroke-miterlimit: 4; fill: rgb(0,0,0); fill-rule: nonzero; opacity: 1;" vector-effect="non-scaling-stroke"  transform=" translate(-421.97, -473.79)" d="M 434.37 492.37 C 428.42 485.04 420.79 482.55 411.97 480.29 Q 401.58000000000004 477.62 391.51000000000005 475.36 Q 383.59000000000003 473.59000000000003 380.30000000000007 471.61 C 371.26000000000005 466.17 367.30000000000007 455.58000000000004 373.6500000000001 446.29 Q 380.0800000000001 436.87 393.0000000000001 438.32 Q 408.4300000000001 440.04 424.5000000000001 444.44 Q 433.0300000000001 446.77 440.8400000000001 450.12 C 455.62000000000006 456.44 467.7200000000001 471.74 472.5700000000001 486.74 C 475.3600000000001 495.37 470.9400000000001 504.88 462.8000000000001 508.40000000000003 C 454.3200000000001 512.07 447.22000000000014 509.02000000000004 442.0500000000001 502.18 Q 438.1300000000001 497 434.3700000000001 492.37 z" stroke-linecap="round" />
</g>
		<g transform="matrix(1 0 0 1 90.51 -46.71)"  >
<path style="stroke: none; stroke-width: 1; stroke-dasharray: none; stroke-linecap: butt; stroke-dashoffset: 0; stroke-linejoin: miter; stroke-miterlimit: 4; fill: rgb(0,0,0); fill-rule: nonzero; opacity: 1;" vector-effect="non-scaling-stroke"  transform=" translate(-602.84, -473.78)" d="M 607.87 481.89 C 600.89 483.88 594.53 487.7 590.37 492.93 Q 586.52 497.75 582.34 502.75 C 576.6800000000001 509.52 567.32 512.51 559.72 507.32 C 551.07 501.42 549.83 491.27 554.07 482.21999999999997 Q 566.11 456.53 591.6600000000001 447.64 Q 612.6100000000001 440.34999999999997 631.9900000000001 438.26 Q 645.0000000000001 436.86 651.7700000000001 447.71 C 654.7900000000001 452.56 654.6500000000001 459.19 651.6700000000001 464.13 Q 646.9000000000001 472.01 636.72 474.38 Q 623.02 477.58 607.87 481.89 z" stroke-linecap="round" />
</g>
		<g transform="matrix(1 0 0 1 -0.24 87.3)"  >
<path style="stroke: none; stroke-width: 1; stroke-dasharray: none; stroke-linecap: butt; stroke-dashoffset: 0; stroke-linejoin: miter; stroke-miterlimit: 4; fill: rgb(0,0,0); fill-rule: nonzero; opacity: 1;" vector-effect="non-scaling-stroke"  transform=" translate(-512.09, -607.8)" d="M 511.8 645.96 Q 493.62 665.86 465.15000000000003 668.8100000000001 Q 450.22 670.35 434.93000000000006 663.94 Q 416.68000000000006 656.2900000000001 403.63000000000005 643.11 C 401.1000000000001 640.5500000000001 398.70000000000005 637.69 397.45000000000005 634.26 C 393.02000000000004 622.11 402.58000000000004 610.49 415.29 611.6899999999999 C 420.3 612.17 425.63 616.4399999999999 429.39000000000004 619.77 C 440.86000000000007 629.9399999999999 452.95000000000005 635 468.64000000000004 631.36 C 478.77000000000004 629.01 486.59000000000003 621.58 491.73 612.61 Q 496.5 604.28 495.29 592.74 C 495.07 590.59 492.16 587.55 490.57 585.91 Q 485.55 580.73 480.48 575.4699999999999 C 473.84000000000003 568.5699999999999 471.77000000000004 558.9899999999999 478.44 551.3299999999999 Q 483.05 546.04 491.54 545.9999999999999 Q 513.6800000000001 545.8999999999999 533.97 546.0899999999999 Q 544.13 546.1899999999999 548.6700000000001 554.92 C 552.45 562.1999999999999 549.97 569.9 544.57 575.5 Q 539.32 580.95 533.33 586.73 Q 531.22 588.76 529.32 591.29 Q 528.9300000000001 591.81 528.9000000000001 592.4699999999999 Q 528.5300000000001 600.7099999999999 529.5500000000001 604.43 Q 532.0500000000001 613.52 539.3900000000001 621.3499999999999 Q 549.2600000000001 631.8699999999999 563.69 632.54 C 576.3000000000001 633.12 585.4000000000001 627.76 594.35 619.8299999999999 C 601.0600000000001 613.8799999999999 607.4200000000001 609.5799999999999 616.5400000000001 612.7299999999999 Q 624.1400000000001 615.3499999999999 626.8600000000001 622.81 C 630.1600000000001 631.88 624.4300000000002 639.3599999999999 617.8600000000001 645.0999999999999 C 600.9700000000001 659.8599999999999 581.4000000000001 670.81 558.8600000000001 668.7699999999999 Q 537.7000000000002 666.8499999999999 521.9600000000002 654.5399999999998 C 518.5900000000001 651.9099999999999 515.7200000000001 648.8399999999998 512.6400000000001 645.9299999999998 Q 512.2100000000002 645.5099999999999 511.8000000000001 645.9599999999998 z" stroke-linecap="round" />
</g>
		<g transform="matrix(-0.06 1 -1 -0.06 -202.26 122.72)" id="svg_30"  >
<ellipse style="stroke: none; stroke-width: 1; stroke-dasharray: none; stroke-linecap: butt; stroke-dashoffset: 0; stroke-linejoin: miter; stroke-miterlimit: 4; fill: rgb(0,0,0); fill-rule: nonzero; opacity: 1;" vector-effect="non-scaling-stroke"  cx="0" cy="0" rx="13.56" ry="13.33" />
</g>
		<g transform="matrix(-0.13 0.99 -0.99 -0.13 -141.69 122.79)" id="svg_31"  >
<ellipse style="stroke: none; stroke-width: 1; stroke-dasharray: none; stroke-linecap: butt; stroke-dashoffset: 0; stroke-linejoin: miter; stroke-miterlimit: 4; fill: rgb(0,0,0); fill-rule: nonzero; opacity: 1;" vector-effect="non-scaling-stroke"  cx="0" cy="0" rx="13.6" ry="13.32" />
</g>
		<g transform="matrix(-0.19 0.98 -0.98 -0.19 135.32 122.77)" id="svg_32"  >
<ellipse style="stroke: none; stroke-width: 1; stroke-dasharray: none; stroke-linecap: butt; stroke-dashoffset: 0; stroke-linejoin: miter; stroke-miterlimit: 4; fill: rgb(0,0,0); fill-rule: nonzero; opacity: 1;" vector-effect="non-scaling-stroke"  cx="0" cy="0" rx="13.6" ry="13.25" />
</g>
		<g transform="matrix(-0.12 0.99 -0.99 -0.12 194.88 122.77)" id="svg_33"  >
<ellipse style="stroke: none; stroke-width: 1; stroke-dasharray: none; stroke-linecap: butt; stroke-dashoffset: 0; stroke-linejoin: miter; stroke-miterlimit: 4; fill: rgb(0,0,0); fill-rule: nonzero; opacity: 1;" vector-effect="non-scaling-stroke"  cx="0" cy="0" rx="13.53" ry="13.31" />
</g>
		<g transform="matrix(1 0 0 1 -0.08 269.56)"  >
<path style="stroke: none; stroke-width: 1; stroke-dasharray: none; stroke-linecap: butt; stroke-dashoffset: 0; stroke-linejoin: miter; stroke-miterlimit: 4; fill: rgb(251,253,248); fill-rule: nonzero; opacity: 1;" vector-effect="non-scaling-stroke"  transform=" translate(-512.25, -790.06)" d="M 763.47 812.24 C 763.44 827.77 752.35 839.98 736.97 841.28 Q 730.71 841.81 723.4100000000001 841.8 Q 518.8600000000001 841.62 297.8500000000001 841.8299999999999 Q 285.99000000000007 841.8399999999999 281.12000000000006 840.3799999999999 C 269.26000000000005 836.8199999999999 261.1700000000001 825.9099999999999 261.06000000000006 813.3199999999999 Q 260.9100000000001 796.0799999999999 260.89000000000004 773.4 Q 260.88000000000005 765.42 262.42 760.91 C 267.27000000000004 746.7099999999999 280.84000000000003 738.35 295.63 738.35 Q 510.6 738.27 729.2 738.34 C 745.4200000000001 738.34 758.19 747.5400000000001 762.2900000000001 763.09 Q 763.6400000000001 768.19 763.6 775.9300000000001 Q 763.5 794.82 763.47 812.24 z M 396.4221 787.0754000000001 C 396.3591931532997 779.8683608420587 390.4657391862132 774.0768963923995 383.2587 774.1398 L 362.4595 774.3213000000001 C 355.2524608420586 774.3842068467003 349.46099639239935 780.2776608137868 349.52389999999997 787.4847000000001 L 349.5379 789.0846000000001 C 349.60080684670027 796.2916391579415 355.49426081378675 802.0831036076007 362.7013 802.0202000000002 L 383.5005 801.8387000000001 C 390.7075391579414 801.7757931532999 396.4990036076006 795.8823391862134 396.4361 788.6753000000001 L 396.4221 787.0754000000001 z M 472.9287 787.3853 C 472.9226318278577 783.897701528207 471.5313663653169 780.5553571696672 469.0609672573026 778.0935472317784 C 466.59056814928823 775.6317372938896 463.2433984533744 774.2521212512612 459.75579999999997 774.2582 L 434.77579999999995 774.3018 C 431.288201513896 774.3078946475415 427.9458676641077 775.69918553068 425.4840764698493 778.1696034023921 C 423.0222852755909 780.6400212741044 421.64269468328814 783.9872015325569 421.64879999999994 787.4748 L 421.65129999999994 788.9146999999999 C 421.65736817214224 792.402298471793 423.04863363468303 795.7446428303327 425.51903274269733 798.2064527682215 C 427.9894318507117 800.6682627061103 431.3366015466255 802.0478787487388 434.82419999999996 802.0418 L 459.8042 801.9982 C 463.2917984861039 801.9921053524585 466.6341323358922 800.60081446932 469.0959235301506 798.1303965976078 C 471.55771472440904 795.6599787258956 472.9373053167118 792.312798467443 472.9312 788.8252 L 472.9287 787.3853 z M 666.0857 787.2591 C 666.0675007271265 783.7794969876446 664.6677758864832 780.4496399753735 662.194450648368 778.0020634998313 C 659.7211254102529 775.5544870242891 656.3768029301863 774.1896850236286 652.8972 774.2079 L 629.1175 774.3324 C 625.6378969442839 774.3506256558906 622.3080503867556 775.7503758877865 619.8604926349179 778.2237199098143 C 617.4129348830802 780.6970639318421 616.0481583628648 784.041397028028 616.0663999999999 787.521 L 616.0742999999999 789.0209 C 616.0924992728734 792.5005030123554 617.4922241135166 795.8303600246264 619.9655493516318 798.2779365001687 C 622.438874589747 800.7255129757109 625.7831970698136 802.0903149763714 629.2627999999999 802.0721 L 653.0424999999999 801.9476 C 656.522103055716 801.9293743441094 659.8519496132443 800.5296241122135 662.2995073650819 798.0562800901856 C 664.7470651169197 795.5829360681579 666.1118416371351 792.238602971972 666.0935999999999 788.759 L 666.0857 787.2591 z M 321.73999999999995 788.13 C 321.73999999999995 780.6520644872911 315.67793551270887 774.59 308.19999999999993 774.59 C 300.722064487291 774.59 294.6599999999999 780.6520644872911 294.6599999999999 788.13 C 294.6599999999999 795.6079355127089 300.722064487291 801.67 308.19999999999993 801.67 C 315.67793551270887 801.67 321.73999999999995 795.6079355127089 321.73999999999995 788.13 z M 529.01 788.18 C 529.01 780.630267469813 522.889732530187 774.51 515.34 774.51 C 507.7902674698131 774.51 501.67 780.630267469813 501.67 788.18 C 501.67 795.7297325301869 507.7902674698131 801.8499999999999 515.34 801.8499999999999 C 522.889732530187 801.8499999999999 529.01 795.7297325301869 529.01 788.18 z M 587.86 788.0999999999999 C 587.86 784.4559254296046 586.4123970133792 780.9611026663728 583.8356471735032 778.3843528264968 C 581.2588973336271 775.8076029866207 577.7640745703953 774.3599999999999 574.12 774.3599999999999 C 570.4759254296047 774.3599999999999 566.9811026663729 775.8076029866207 564.4043528264968 778.3843528264968 C 561.8276029866208 780.9611026663728 560.38 784.4559254296046 560.38 788.0999999999999 C 560.38 791.7440745703952 561.8276029866208 795.238897333627 564.4043528264968 797.8156471735031 C 566.9811026663729 800.3923970133791 570.4759254296047 801.8399999999999 574.12 801.8399999999999 C 577.7640745703953 801.8399999999999 581.2588973336271 800.3923970133791 583.8356471735032 797.8156471735031 C 586.4123970133792 795.238897333627 587.86 791.7440745703952 587.86 788.0999999999999 z M 721.24 788.1599999999999 C 721.24 784.5477514083852 719.8050398342231 781.0834511147013 717.2507943597608 778.5292056402391 C 714.6965488852985 775.9749601657768 711.2322485916146 774.5399999999998 707.62 774.5399999999998 C 700.0978817073046 774.5399999999998 694 780.6378817073045 694 788.1599999999999 C 694 795.6821182926952 700.0978817073046 801.7799999999999 707.62 801.7799999999999 C 711.2322485916146 801.7799999999999 714.6965488852985 800.3450398342229 717.2507943597608 797.7907943597606 C 719.8050398342231 795.2365488852984 721.24 791.7722485916145 721.24 788.1599999999999 z" stroke-linecap="round" />
</g>
		<g transform="matrix(1 -0.01 0.01 1 -139.36 267.58)" id="svg_35"  >
<rect style="stroke: none; stroke-width: 1; stroke-dasharray: none; stroke-linecap: butt; stroke-dashoffset: 0; stroke-linejoin: miter; stroke-miterlimit: 4; fill: rgb(0,0,0); fill-rule: nonzero; opacity: 1;" vector-effect="non-scaling-stroke"  x="-23.45" y="-13.85" rx="13.05" ry="13.05" width="46.9" height="27.7" />
</g>
		<g transform="matrix(1 0 0 1 -65.04 267.65)" id="svg_36"  >
<rect style="stroke: none; stroke-width: 1; stroke-dasharray: none; stroke-linecap: butt; stroke-dashoffset: 0; stroke-linejoin: miter; stroke-miterlimit: 4; fill: rgb(0,0,0); fill-rule: nonzero; opacity: 1;" vector-effect="non-scaling-stroke"  x="-25.64" y="-13.87" rx="13.15" ry="13.15" width="51.28" height="27.74" />
</g>
		<g transform="matrix(1 -0.01 0.01 1 128.74 267.65)" id="svg_37"  >
<rect style="stroke: none; stroke-width: 1; stroke-dasharray: none; stroke-linecap: butt; stroke-dashoffset: 0; stroke-linejoin: miter; stroke-miterlimit: 4; fill: rgb(0,0,0); fill-rule: nonzero; opacity: 1;" vector-effect="non-scaling-stroke"  x="-25.01" y="-13.87" rx="13.12" ry="13.12" width="50.02" height="27.74" />
</g>
		<g transform="matrix(1 0 0 1 -204.13 267.63)" id="svg_38"  >
<circle style="stroke: none; stroke-width: 1; stroke-dasharray: none; stroke-linecap: butt; stroke-dashoffset: 0; stroke-linejoin: miter; stroke-miterlimit: 4; fill: rgb(0,0,0); fill-rule: nonzero; opacity: 1;" vector-effect="non-scaling-stroke"  cx="0" cy="0" r="13.54" />
</g>
		<g transform="matrix(1 0 0 1 3.01 267.68)" id="svg_39"  >
<circle style="stroke: none; stroke-width: 1; stroke-dasharray: none; stroke-linecap: butt; stroke-dashoffset: 0; stroke-linejoin: miter; stroke-miterlimit: 4; fill: rgb(0,0,0); fill-rule: nonzero; opacity: 1;" vector-effect="non-scaling-stroke"  cx="0" cy="0" r="13.67" />
</g>
		<g transform="matrix(1 0 0 1 61.79 267.6)" id="svg_40"  >
<circle style="stroke: none; stroke-width: 1; stroke-dasharray: none; stroke-linecap: butt; stroke-dashoffset: 0; stroke-linejoin: miter; stroke-miterlimit: 4; fill: rgb(0,0,0); fill-rule: nonzero; opacity: 1;" vector-effect="non-scaling-stroke"  cx="0" cy="0" r="13.74" />
</g>
		<g transform="matrix(1 0 0 1 195.29 267.66)" id="svg_41"  >
<circle style="stroke: none; stroke-width: 1; stroke-dasharray: none; stroke-linecap: butt; stroke-dashoffset: 0; stroke-linejoin: miter; stroke-miterlimit: 4; fill: rgb(0,0,0); fill-rule: nonzero; opacity: 1;" vector-effect="non-scaling-stroke"  cx="0" cy="0" r="13.62" />
</g>
		<g transform="matrix(1 0 0 1 0.31 381.8)"  >
<path style="stroke: none; stroke-width: 1; stroke-dasharray: none; stroke-linecap: butt; stroke-dashoffset: 0; stroke-linejoin: miter; stroke-miterlimit: 4; fill: rgb(0,0,0); fill-rule: nonzero; opacity: 1;" vector-effect="non-scaling-stroke"  transform=" translate(-512.64, -902.3)" d="M 345.74 874.03 C 363.06 881.9499999999999 380.48 888.86 399.11 894.28 Q 441.18 906.51 486.71000000000004 909.66 Q 496.01000000000005 910.3 506.01000000000005 910.41 Q 589.0600000000001 911.3 664.6600000000001 880.36 C 669.1500000000001 878.52 673.59 876.48 677.94 874.26 C 683.12 871.61 689.1600000000001 871.83 693.5100000000001 875.74 C 698.7900000000001 880.49 697.4300000000001 888.1800000000001 691.0500000000001 891.33 Q 674.69 899.4000000000001 656.7700000000001 905.94 Q 606.2400000000001 924.3900000000001 550.7700000000001 929.7800000000001 Q 522.8900000000001 932.4900000000001 497.4900000000001 931.4800000000001 C 441.4900000000001 929.2500000000001 385.04000000000013 916.8400000000001 334.8100000000001 891.6900000000002 Q 328.0900000000001 888.3200000000002 328.8600000000001 881.5900000000001 C 329.8600000000001 872.7300000000001 338.6900000000001 870.8000000000002 345.7400000000001 874.0300000000002 z" stroke-linecap="round" />
</g>
</g>
</g>
</svg>