<svg width="700" height="700" viewBox="0 0 700 700" fill="none" xmlns="http://www.w3.org/2000/svg">
<path d="M325 14.4338C340.47 5.50212 359.53 5.50212 375 14.4338L628.109 160.566C643.579 169.498 653.109 186.004 653.109 203.868V496.132C653.109 513.996 643.579 530.502 628.109 539.434L375 685.566C359.53 694.498 340.47 694.498 325 685.566L71.8911 539.434C56.4211 530.502 46.8911 513.996 46.8911 496.132V203.868C46.8911 186.004 56.4211 169.498 71.8911 160.566L325 14.4338Z" fill="url(#paint0_linear_5_22)" stroke="#5928C2" stroke-width="1.5"/>
<path d="M535.19 417.276C537.372 417.276 540.635 417.947 543.43 419.973C546.269 422.03 548.563 425.445 548.777 430.765C549.181 440.819 548.945 482.111 548.778 501.472C548.738 506.039 548.108 510.404 546.078 513.65C543.992 516.988 540.519 519 535.19 519H439.676L440.075 517.706L470.79 417.982L471.007 417.276H535.19ZM223.458 417.485L253.67 517.209L254.061 518.499H166.559L166.508 518.493C163.922 518.227 160.08 517.094 156.862 514.536C153.606 511.948 151.008 507.912 151.008 501.964V432.291L151.009 432.273C151.098 429.717 151.887 425.892 154.005 422.675C156.154 419.411 159.679 416.775 165.1 416.775H223.243L223.458 417.485ZM222.161 294.014L222.179 294.017C225.199 294.518 229.254 295.183 233.367 297.609C237.502 300.048 241.619 304.216 244.913 311.592C248.168 318.88 254.691 339.712 261.674 362.404C268.229 383.705 275.207 406.714 280.335 421.974L314.19 306.245C315.117 302.976 316.114 300.212 317.442 298.255C318.803 296.247 320.581 295 323 295H368C369.427 295 370.641 295.134 371.691 295.522C372.767 295.921 373.615 296.567 374.335 297.491C375.037 298.391 375.61 299.547 376.176 300.957C376.743 302.371 377.329 304.111 378.031 306.208C380.777 314.405 401.46 384.668 412.335 421.759L446.618 306.241L446.628 306.208C447.163 304.612 448.296 302.2 449.99 300.066C451.676 297.943 454.019 295.97 456.992 295.515C458.39 295.301 462.481 295.181 468.074 295.118C473.714 295.054 480.983 295.048 488.819 295.077C504.491 295.136 522.445 295.337 534.196 295.504H534.26L534.323 295.514C536.207 295.782 539.071 296.627 541.642 298.311C544.224 300.002 546.586 302.593 547.252 306.352C547.569 308.138 547.815 312.146 548.012 317.381C548.211 322.649 548.362 329.241 548.476 336.251C548.702 350.273 548.778 365.989 548.778 376.182C548.778 380.977 547.668 385.581 545.279 389.017C542.861 392.492 539.163 394.722 534.183 394.722C525.029 394.722 482.995 394.884 462.4 394.727L437.451 471.31L437.449 471.315C436.841 473.147 436.305 474.951 435.808 476.401C435.297 477.894 434.757 479.24 434.038 480.358C433.307 481.497 432.385 482.413 431.121 483.029C429.872 483.639 428.36 483.921 426.5 483.921C422.034 483.921 398.908 483.754 386.664 483.921L385.917 483.932L385.695 483.219L346.876 358.514L308.456 483.216L308.238 483.921H268C267.37 483.921 266.049 484.131 264.514 483.163C263.037 482.232 261.435 480.292 259.597 476.43C258.658 474.457 255.827 466.479 251.921 454.975C248.001 443.427 242.969 428.24 237.616 411.768C227.9 381.868 217.123 347.72 210.002 323.418L210.913 393.708L210.927 394.722H165.1C160.342 394.722 156.768 393.273 154.398 390.631C152.044 388.007 151.008 384.352 151.008 380.191V310.034C150.925 307.389 151.506 303.441 153.562 300.112C155.664 296.709 159.288 294 165.1 294H222.08L222.161 294.014ZM498.5 454C491.044 454 485 460.044 485 467.5C485 474.956 491.044 481 498.5 481C505.956 481 512 474.956 512 467.5C512 460.044 505.956 454 498.5 454ZM498.5 330C491.044 330 485 336.044 485 343.5C485 350.956 491.044 357 498.5 357C505.956 357 512 350.956 512 343.5C512 336.044 505.956 330 498.5 330Z" fill="white"/>
<path d="M535.19 417.276V416.776V416.776V417.276ZM543.43 419.973L543.723 419.568V419.568L543.43 419.973ZM548.777 430.765L549.276 430.745V430.745L548.777 430.765ZM548.778 501.472L549.277 501.476V501.476L548.778 501.472ZM546.078 513.65L546.502 513.915V513.915L546.078 513.65ZM535.19 519V519.5V519.5V519ZM439.676 519L439.198 518.853L438.998 519.5H439.676V519ZM440.075 517.706L440.553 517.854L440.553 517.853L440.075 517.706ZM470.79 417.982L471.268 418.13L471.268 418.129L470.79 417.982ZM471.007 417.276V416.776H470.638L470.529 417.13L471.007 417.276ZM223.458 417.485L222.98 417.63L222.98 417.63L223.458 417.485ZM253.67 517.209L254.149 517.064L254.149 517.064L253.67 517.209ZM254.061 518.499V518.999H254.735L254.539 518.354L254.061 518.499ZM166.559 518.499L166.501 518.996L166.53 518.999H166.559V518.499ZM166.508 518.493L166.565 517.996L166.559 517.996L166.508 518.493ZM156.862 514.536L156.55 514.928H156.55L156.862 514.536ZM151.008 432.291L150.509 432.263L150.508 432.277V432.291H151.008ZM151.009 432.273L151.508 432.301L151.509 432.291L151.009 432.273ZM154.005 422.675L153.587 422.4H153.587L154.005 422.675ZM165.1 416.775V416.275H165.1L165.1 416.775ZM223.243 416.775L223.722 416.631L223.614 416.275H223.243V416.775ZM222.161 294.014L222.078 294.507L222.079 294.507L222.161 294.014ZM222.179 294.017L222.097 294.51L222.097 294.51L222.179 294.017ZM233.367 297.609L233.621 297.179L233.621 297.179L233.367 297.609ZM244.913 311.592L245.37 311.388V311.388L244.913 311.592ZM261.674 362.404L262.152 362.257V362.257L261.674 362.404ZM280.335 421.974L279.861 422.133L280.368 423.642L280.815 422.114L280.335 421.974ZM314.19 306.245L314.67 306.386L314.671 306.382L314.19 306.245ZM317.442 298.255L317.028 297.974L317.028 297.974L317.442 298.255ZM368 295V294.5V294.5V295ZM371.691 295.522L371.864 295.054L371.864 295.054L371.691 295.522ZM374.335 297.491L374.73 297.184L374.729 297.184L374.335 297.491ZM376.176 300.957L376.64 300.771V300.771L376.176 300.957ZM378.031 306.208L378.506 306.049V306.049L378.031 306.208ZM412.335 421.759L411.855 421.899L412.332 423.526L412.814 421.901L412.335 421.759ZM446.618 306.241L447.098 306.383L447.098 306.382L446.618 306.241ZM446.628 306.208L446.154 306.049L446.151 306.058L446.148 306.067L446.628 306.208ZM449.99 300.066L449.599 299.756V299.756L449.99 300.066ZM456.992 295.515L456.917 295.02L456.917 295.02L456.992 295.515ZM468.074 295.118L468.069 294.618V294.618L468.074 295.118ZM488.819 295.077L488.82 294.577V294.577L488.819 295.077ZM534.196 295.504L534.189 296.004H534.196V295.504ZM534.26 295.504L534.336 295.01L534.298 295.004H534.26V295.504ZM534.323 295.514L534.247 296.008L534.253 296.009L534.323 295.514ZM541.642 298.311L541.916 297.892L541.916 297.892L541.642 298.311ZM547.252 306.352L547.744 306.264V306.264L547.252 306.352ZM548.012 317.381L548.512 317.362V317.362L548.012 317.381ZM548.476 336.251L548.976 336.243V336.243L548.476 336.251ZM548.778 376.182H549.278V376.182H548.778ZM545.279 389.017L545.689 389.302V389.302L545.279 389.017ZM534.183 394.722V395.222V395.222V394.722ZM462.4 394.727L462.403 394.227L462.038 394.224L461.924 394.572L462.4 394.727ZM437.451 471.31L437.926 471.468L437.927 471.464L437.451 471.31ZM437.449 471.315L436.975 471.157L436.975 471.158L437.449 471.315ZM435.808 476.401L436.281 476.563V476.563L435.808 476.401ZM434.038 480.358L434.459 480.629V480.629L434.038 480.358ZM431.121 483.029L431.341 483.479L431.341 483.479L431.121 483.029ZM426.5 483.921V484.421V484.421V483.921ZM386.664 483.921L386.657 483.421H386.657L386.664 483.921ZM385.917 483.932L385.44 484.08L385.551 484.437L385.924 484.432L385.917 483.932ZM385.695 483.219L386.173 483.07L386.173 483.07L385.695 483.219ZM346.876 358.514L347.354 358.365L346.874 356.824L346.398 358.366L346.876 358.514ZM308.456 483.216L308.934 483.363L308.934 483.363L308.456 483.216ZM308.238 483.921V484.421H308.607L308.716 484.068L308.238 483.921ZM264.514 483.163L264.247 483.586H264.247L264.514 483.163ZM259.597 476.43L259.145 476.645L259.145 476.645L259.597 476.43ZM251.921 454.975L252.395 454.814V454.814L251.921 454.975ZM237.616 411.768L238.092 411.613V411.613L237.616 411.768ZM210.002 323.418L210.482 323.277L209.502 323.424L210.002 323.418ZM210.913 393.708L210.413 393.714L210.413 393.715L210.913 393.708ZM210.927 394.722V395.222H211.434L211.427 394.715L210.927 394.722ZM165.1 394.722L165.1 395.222H165.1V394.722ZM154.398 390.631L154.025 390.965L154.025 390.965L154.398 390.631ZM151.008 380.191H150.508V380.191L151.008 380.191ZM151.008 310.034H151.508V310.026L151.508 310.019L151.008 310.034ZM153.562 300.112L153.136 299.85L153.136 299.85L153.562 300.112ZM165.1 294V293.5H165.1L165.1 294ZM222.08 294L222.163 293.507L222.122 293.5H222.08V294ZM498.5 454V453.5V453.5V454ZM498.5 481V481.5V481.5V481ZM498.5 330V329.5V329.5V330ZM498.5 357V357.5V357.5V357ZM535.19 417.276V417.776C537.288 417.776 540.442 418.425 543.136 420.378L543.43 419.973L543.723 419.568C540.827 417.469 537.457 416.776 535.19 416.776V417.276ZM543.43 419.973L543.136 420.378C545.853 422.346 548.069 425.619 548.277 430.785L548.777 430.765L549.276 430.745C549.056 425.271 546.686 421.715 543.723 419.568L543.43 419.973ZM548.777 430.765L548.277 430.785C548.68 440.823 548.445 482.099 548.278 501.467L548.778 501.472L549.277 501.476C549.445 482.124 549.681 440.815 549.276 430.745L548.777 430.765ZM548.778 501.472L548.278 501.467C548.238 506.01 547.608 510.26 545.654 513.385L546.078 513.65L546.502 513.915C548.607 510.549 549.238 506.068 549.277 501.476L548.778 501.472ZM546.078 513.65L545.654 513.385C543.672 516.556 540.372 518.5 535.19 518.5V519V519.5C540.666 519.5 544.312 517.419 546.502 513.915L546.078 513.65ZM535.19 519V518.5H439.676V519V519.5H535.19V519ZM439.676 519L440.154 519.147L440.553 517.854L440.075 517.706L439.598 517.559L439.198 518.853L439.676 519ZM440.075 517.706L440.553 517.853L471.268 418.13L470.79 417.982L470.312 417.835L439.598 517.559L440.075 517.706ZM470.79 417.982L471.268 418.129L471.485 417.423L471.007 417.276L470.529 417.13L470.312 417.836L470.79 417.982ZM471.007 417.276V417.776H535.19V417.276V416.776H471.007V417.276ZM223.458 417.485L222.98 417.63L253.192 517.354L253.67 517.209L254.149 517.064L223.937 417.34L223.458 417.485ZM253.67 517.209L253.192 517.354L253.582 518.644L254.061 518.499L254.539 518.354L254.149 517.064L253.67 517.209ZM254.061 518.499V517.999H166.559V518.499V518.999H254.061V518.499ZM166.559 518.499L166.616 518.002L166.565 517.996L166.508 518.493L166.451 518.99L166.501 518.996L166.559 518.499ZM166.508 518.493L166.559 517.996C164.049 517.737 160.303 516.633 157.173 514.145L156.862 514.536L156.55 514.928C159.857 517.556 163.795 518.716 166.457 518.991L166.508 518.493ZM156.862 514.536L157.173 514.145C154.024 511.642 151.508 507.744 151.508 501.964H151.008H150.508C150.508 508.079 153.188 512.255 156.55 514.928L156.862 514.536ZM151.008 501.964H151.508V432.291H151.008H150.508V501.964H151.008ZM151.008 432.291L151.507 432.319L151.508 432.301L151.009 432.273L150.51 432.246L150.509 432.263L151.008 432.291ZM151.009 432.273L151.509 432.291C151.595 429.801 152.367 426.072 154.423 422.95L154.005 422.675L153.587 422.4C151.407 425.712 150.6 429.632 150.509 432.256L151.009 432.273ZM154.005 422.675L154.423 422.95C156.494 419.804 159.872 417.275 165.1 417.275L165.1 416.775L165.1 416.275C159.485 416.275 155.814 419.017 153.587 422.4L154.005 422.675ZM165.1 416.775V417.275H223.243V416.775V416.275H165.1V416.775ZM223.243 416.775L222.765 416.92L222.98 417.63L223.458 417.485L223.937 417.341L223.722 416.631L223.243 416.775ZM222.161 294.014L222.079 294.507L222.097 294.51L222.179 294.017L222.261 293.523L222.244 293.52L222.161 294.014ZM222.179 294.017L222.097 294.51C225.118 295.011 229.089 295.666 233.113 298.04L233.367 297.609L233.621 297.179C229.42 294.701 225.28 294.024 222.261 293.523L222.179 294.017ZM233.367 297.609L233.113 298.04C237.148 300.42 241.2 304.503 244.457 311.796L244.913 311.592L245.37 311.388C242.038 303.928 237.855 299.676 233.621 297.179L233.367 297.609ZM244.913 311.592L244.457 311.796C247.695 319.048 254.207 339.839 261.196 362.551L261.674 362.404L262.152 362.257C255.175 339.585 248.64 318.711 245.37 311.388L244.913 311.592ZM261.674 362.404L261.196 362.551C267.749 383.847 274.731 406.865 279.861 422.133L280.335 421.974L280.809 421.814C275.684 406.563 268.708 383.563 262.152 362.257L261.674 362.404ZM280.335 421.974L280.815 422.114L314.67 306.386L314.19 306.245L313.71 306.105L279.855 421.833L280.335 421.974ZM314.19 306.245L314.671 306.382C315.596 303.117 316.577 300.421 317.855 298.536L317.442 298.255L317.028 297.974C315.652 300.003 314.637 302.834 313.709 306.109L314.19 306.245ZM317.442 298.255L317.855 298.536C319.152 296.623 320.791 295.5 323 295.5V295V294.5C320.37 294.5 318.454 295.87 317.028 297.974L317.442 298.255ZM323 295V295.5H368V295V294.5H323V295ZM368 295V295.5C369.401 295.5 370.548 295.633 371.517 295.991L371.691 295.522L371.864 295.054C370.735 294.636 369.452 294.5 368 294.5V295ZM371.691 295.522L371.517 295.991C372.5 296.355 373.273 296.942 373.941 297.799L374.335 297.491L374.729 297.184C373.957 296.193 373.035 295.487 371.864 295.054L371.691 295.522ZM374.335 297.491L373.941 297.799C374.599 298.644 375.152 299.748 375.712 301.143L376.176 300.957L376.64 300.771C376.068 299.346 375.474 298.139 374.73 297.184L374.335 297.491ZM376.176 300.957L375.712 301.143C376.272 302.541 376.854 304.266 377.557 306.367L378.031 306.208L378.506 306.049C377.805 303.957 377.214 302.201 376.64 300.771L376.176 300.957ZM378.031 306.208L377.557 306.367C380.299 314.551 400.978 384.8 411.855 421.899L412.335 421.759L412.815 421.618C401.943 384.536 381.255 314.258 378.506 306.049L378.031 306.208ZM412.335 421.759L412.814 421.901L447.098 306.383L446.618 306.241L446.139 306.099L411.856 421.617L412.335 421.759ZM446.618 306.241L447.098 306.382L447.108 306.349L446.628 306.208L446.148 306.067L446.139 306.1L446.618 306.241ZM446.628 306.208L447.102 306.367C447.621 304.817 448.729 302.459 450.382 300.377L449.99 300.066L449.599 299.756C447.863 301.942 446.704 304.407 446.154 306.049L446.628 306.208ZM449.99 300.066L450.382 300.377C452.031 298.301 454.272 296.437 457.068 296.009L456.992 295.515L456.917 295.02C453.766 295.503 451.322 297.585 449.599 299.756L449.99 300.066ZM456.992 295.515L457.068 296.009C458.422 295.802 462.468 295.682 468.08 295.618L468.074 295.118L468.069 294.618C462.495 294.681 458.358 294.8 456.917 295.02L456.992 295.515ZM468.074 295.118L468.08 295.618C473.716 295.554 480.982 295.548 488.817 295.577L488.819 295.077L488.82 294.577C480.984 294.548 473.712 294.554 468.069 294.618L468.074 295.118ZM488.819 295.077L488.817 295.577C504.487 295.636 522.439 295.837 534.189 296.004L534.196 295.504L534.204 295.004C522.451 294.837 504.495 294.636 488.82 294.577L488.819 295.077ZM534.196 295.504V296.004H534.26V295.504V295.004H534.196V295.504ZM534.26 295.504L534.184 295.998L534.247 296.008L534.323 295.514L534.399 295.019L534.336 295.01L534.26 295.504ZM534.323 295.514L534.253 296.009C536.076 296.268 538.868 297.092 541.368 298.729L541.642 298.311L541.916 297.892C539.274 296.162 536.338 295.295 534.394 295.019L534.323 295.514ZM541.642 298.311L541.368 298.729C543.874 300.37 546.125 302.856 546.76 306.439L547.252 306.352L547.744 306.264C547.047 302.33 544.574 299.633 541.916 297.892L541.642 298.311ZM547.252 306.352L546.76 306.439C547.069 308.184 547.314 312.154 547.512 317.4L548.012 317.381L548.512 317.362C548.315 312.139 548.068 308.092 547.744 306.264L547.252 306.352ZM548.012 317.381L547.512 317.4C547.711 322.662 547.863 329.25 547.976 336.259L548.476 336.251L548.976 336.243C548.862 329.231 548.71 322.635 548.512 317.362L548.012 317.381ZM548.476 336.251L547.976 336.259C548.202 350.277 548.278 365.99 548.278 376.182H548.778H549.278C549.278 365.987 549.202 350.268 548.976 336.243L548.476 336.251ZM548.778 376.182H548.278C548.278 380.909 547.183 385.403 544.868 388.731L545.279 389.017L545.689 389.302C548.154 385.758 549.278 381.045 549.278 376.182H548.778ZM545.279 389.017L544.868 388.731C542.54 392.079 538.991 394.222 534.183 394.222V394.722V395.222C539.334 395.222 543.183 392.905 545.689 389.302L545.279 389.017ZM534.183 394.722V394.222C525.024 394.222 482.997 394.384 462.403 394.227L462.4 394.727L462.396 395.227C482.994 395.384 525.034 395.222 534.183 395.222V394.722ZM462.4 394.727L461.924 394.572L436.976 471.155L437.451 471.31L437.927 471.464L462.875 394.881L462.4 394.727ZM437.451 471.31L436.977 471.151L436.975 471.157L437.449 471.315L437.924 471.474L437.926 471.468L437.451 471.31ZM437.449 471.315L436.975 471.158C436.355 473.024 435.835 474.778 435.335 476.239L435.808 476.401L436.281 476.563C436.774 475.124 437.328 473.269 437.924 471.473L437.449 471.315ZM435.808 476.401L435.335 476.239C434.827 477.723 434.302 479.022 433.618 480.088L434.038 480.358L434.459 480.629C435.211 479.457 435.767 478.065 436.281 476.563L435.808 476.401ZM434.038 480.358L433.618 480.088C432.927 481.165 432.069 482.01 430.902 482.58L431.121 483.029L431.341 483.479C432.701 482.815 433.688 481.829 434.459 480.629L434.038 480.358ZM431.121 483.029L430.902 482.58C429.742 483.146 428.312 483.421 426.5 483.421V483.921V484.421C428.408 484.421 430.001 484.132 431.341 483.479L431.121 483.029ZM426.5 483.921V483.421C422.043 483.421 398.906 483.254 386.657 483.421L386.664 483.921L386.671 484.421C398.911 484.254 422.026 484.421 426.5 484.421V483.921ZM386.664 483.921L386.657 483.421L385.91 483.432L385.917 483.932L385.924 484.432L386.671 484.421L386.664 483.921ZM385.917 483.932L386.395 483.783L386.173 483.07L385.695 483.219L385.218 483.367L385.44 484.08L385.917 483.932ZM385.695 483.219L386.173 483.07L347.354 358.365L346.876 358.514L346.399 358.662L385.218 483.367L385.695 483.219ZM346.876 358.514L346.398 358.366L307.978 483.069L308.456 483.216L308.934 483.363L347.354 358.661L346.876 358.514ZM308.456 483.216L307.979 483.068L307.761 483.773L308.238 483.921L308.716 484.068L308.934 483.363L308.456 483.216ZM308.238 483.921V483.421H268V483.921V484.421H308.238V483.921ZM268 483.921V483.421C267.315 483.421 266.166 483.614 264.781 482.74L264.514 483.163L264.247 483.586C265.931 484.648 267.425 484.421 268 484.421V483.921ZM264.514 483.163L264.781 482.74C263.425 481.885 261.874 480.05 260.048 476.215L259.597 476.43L259.145 476.645C260.997 480.534 262.649 482.578 264.247 483.586L264.514 483.163ZM259.597 476.43L260.048 476.215C259.126 474.276 256.307 466.337 252.395 454.814L251.921 454.975L251.448 455.135C255.347 466.621 258.19 474.638 259.145 476.645L259.597 476.43ZM251.921 454.975L252.395 454.814C248.475 443.269 243.444 428.084 238.092 411.613L237.616 411.768L237.141 411.922C242.494 428.396 247.526 443.585 251.448 455.135L251.921 454.975ZM237.616 411.768L238.092 411.613C228.376 381.716 217.6 347.572 210.482 323.277L210.002 323.418L209.522 323.559C216.645 347.867 227.424 382.021 237.141 411.922L237.616 411.768ZM210.002 323.418L209.502 323.424L210.413 393.714L210.913 393.708L211.413 393.702L210.502 323.411L210.002 323.418ZM210.913 393.708L210.413 393.715L210.427 394.728L210.927 394.722L211.427 394.715L211.413 393.701L210.913 393.708ZM210.927 394.722V394.222H165.1V394.722V395.222H210.927V394.722ZM165.1 394.722L165.1 394.222C160.446 394.222 157.023 392.808 154.77 390.297L154.398 390.631L154.025 390.965C156.514 393.738 160.239 395.222 165.1 395.222L165.1 394.722ZM154.398 390.631L154.77 390.297C152.525 387.795 151.508 384.276 151.508 380.191L151.008 380.191L150.508 380.191C150.508 384.428 151.563 388.219 154.025 390.965L154.398 390.631ZM151.008 380.191H151.508V310.034H151.008H150.508V380.191H151.008ZM151.008 310.034L151.508 310.019C151.427 307.443 151.996 303.599 153.987 300.375L153.562 300.112L153.136 299.85C151.016 303.283 150.423 307.335 150.508 310.05L151.008 310.034ZM153.562 300.112L153.987 300.375C156.005 297.107 159.475 294.5 165.1 294.5L165.1 294L165.1 293.5C159.101 293.5 155.322 296.311 153.136 299.85L153.562 300.112ZM165.1 294V294.5H222.08V294V293.5H165.1V294ZM222.08 294L221.997 294.493L222.078 294.507L222.161 294.014L222.244 293.521L222.163 293.507L222.08 294ZM498.5 454V453.5C490.768 453.5 484.5 459.768 484.5 467.5H485H485.5C485.5 460.32 491.32 454.5 498.5 454.5V454ZM485 467.5H484.5C484.5 475.232 490.768 481.5 498.5 481.5V481V480.5C491.32 480.5 485.5 474.68 485.5 467.5H485ZM498.5 481V481.5C506.232 481.5 512.5 475.232 512.5 467.5H512H511.5C511.5 474.68 505.68 480.5 498.5 480.5V481ZM512 467.5H512.5C512.5 459.768 506.232 453.5 498.5 453.5V454V454.5C505.68 454.5 511.5 460.32 511.5 467.5H512ZM498.5 330V329.5C490.768 329.5 484.5 335.768 484.5 343.5H485H485.5C485.5 336.32 491.32 330.5 498.5 330.5V330ZM485 343.5H484.5C484.5 351.232 490.768 357.5 498.5 357.5V357V356.5C491.32 356.5 485.5 350.68 485.5 343.5H485ZM498.5 357V357.5C506.232 357.5 512.5 351.232 512.5 343.5H512H511.5C511.5 350.68 505.68 356.5 498.5 356.5V357ZM512 343.5H512.5C512.5 335.768 506.232 329.5 498.5 329.5V330V330.5C505.68 330.5 511.5 336.32 511.5 343.5H512Z" fill="#4216A1"/>
<mask id="path-4-inside-1_5_22" fill="white">
<path d="M528 169C539.046 169 548 177.954 548 189V251C548 262.046 539.046 271 528 271H172C160.954 271 152 262.046 152 251V189C152 177.954 160.954 169 172 169H528ZM451.5 207C444.044 207 438 213.044 438 220.5C438 227.956 444.044 234 451.5 234C458.956 234 465 227.956 465 220.5C465 213.044 458.956 207 451.5 207ZM498.5 207C491.044 207 485 213.044 485 220.5C485 227.956 491.044 234 498.5 234C505.956 234 512 227.956 512 220.5C512 213.044 505.956 207 498.5 207Z"/>
</mask>
<path d="M528 169C539.046 169 548 177.954 548 189V251C548 262.046 539.046 271 528 271H172C160.954 271 152 262.046 152 251V189C152 177.954 160.954 169 172 169H528ZM451.5 207C444.044 207 438 213.044 438 220.5C438 227.956 444.044 234 451.5 234C458.956 234 465 227.956 465 220.5C465 213.044 458.956 207 451.5 207ZM498.5 207C491.044 207 485 213.044 485 220.5C485 227.956 491.044 234 498.5 234C505.956 234 512 227.956 512 220.5C512 213.044 505.956 207 498.5 207Z" fill="white"/>
<path d="M548 189H549V189H548ZM152 251H151V251H152ZM528 169V170C538.493 170 547 178.507 547 189H548H549C549 177.402 539.598 168 528 168V169ZM548 189H547V251H548H549V189H548ZM548 251H547C547 261.493 538.493 270 528 270V271V272C539.598 272 549 262.598 549 251H548ZM528 271V270H172V271V272H528V271ZM172 271V270C161.507 270 153 261.493 153 251H152H151C151 262.598 160.402 272 172 272V271ZM152 251H153V189H152H151V251H152ZM152 189H153C153 178.507 161.507 170 172 170V169V168C160.402 168 151 177.402 151 189H152ZM172 169V170H528V169V168H172V169ZM451.5 207V206C443.492 206 437 212.492 437 220.5H438H439C439 213.596 444.596 208 451.5 208V207ZM438 220.5H437C437 228.508 443.492 235 451.5 235V234V233C444.596 233 439 227.404 439 220.5H438ZM451.5 234V235C459.508 235 466 228.508 466 220.5H465H464C464 227.404 458.404 233 451.5 233V234ZM465 220.5H466C466 212.492 459.508 206 451.5 206V207V208C458.404 208 464 213.596 464 220.5H465ZM498.5 207V206C490.492 206 484 212.492 484 220.5H485H486C486 213.596 491.596 208 498.5 208V207ZM485 220.5H484C484 228.508 490.492 235 498.5 235V234V233C491.596 233 486 227.404 486 220.5H485ZM498.5 234V235C506.508 235 513 228.508 513 220.5H512H511C511 227.404 505.404 233 498.5 233V234ZM512 220.5H513C513 212.492 506.508 206 498.5 206V207V208C505.404 208 511 213.596 511 220.5H512Z" fill="#4216A1" mask="url(#path-4-inside-1_5_22)"/>
<defs>
<linearGradient id="paint0_linear_5_22" x1="350" y1="9.5" x2="350" y2="693" gradientUnits="userSpaceOnUse">
<stop stop-color="#903DE0"/>
<stop offset="1" stop-color="#5530BC"/>
</linearGradient>
</defs>
</svg>
